<svg xmlns="http://www.w3.org/2000/svg" xmlns:xlink="http://www.w3.org/1999/xlink" width="313" zoomAndPan="magnify" viewBox="0 0 234.75 48" height="64" preserveAspectRatio="xMidYMid meet" version="1.0"><defs><clipPath id="b49822094b"><path d="M 3.574219 3.046875 L 18.34375 3.046875 L 18.34375 6.871094 L 3.574219 6.871094 Z M 3.574219 6.871094 L 8.230469 6.871094 L 8.230469 13.914062 L 3.574219 13.914062 Z M 3.574219 13.914062 L 17.621094 13.914062 L 17.621094 17.703125 L 3.574219 17.703125 Z M 3.574219 17.703125 L 8.230469 17.703125 L 8.230469 28.570312 L 3.574219 28.570312 Z M 3.574219 17.703125 " clip-rule="nonzero"/></clipPath><clipPath id="ba380e26bb"><path d="M 18.152344 3 L 40.730469 3 L 40.730469 28.648438 L 18.152344 28.648438 Z M 18.152344 3 " clip-rule="nonzero"/></clipPath><clipPath id="bb638363f9"><path d="M 32.539062 17.816406 L 30.53125 11.53125 C 30.039062 9.976562 29.625 8.234375 29.246094 6.757812 L 29.167969 6.757812 C 28.789062 8.234375 28.410156 10.015625 27.957031 11.53125 L 25.988281 17.816406 Z M 25.234375 21.335938 L 23.035156 28.566406 L 18.226562 28.566406 L 26.40625 3.046875 L 32.351562 3.046875 L 40.644531 28.566406 L 35.648438 28.566406 L 33.335938 21.335938 Z M 25.234375 21.335938 " clip-rule="nonzero"/></clipPath><clipPath id="bb8290899b"><path d="M 42 2.636719 L 61.984375 2.636719 L 61.984375 28.980469 L 42 28.980469 Z M 42 2.636719 " clip-rule="nonzero"/></clipPath><clipPath id="185ae9ea3f"><path d="M 61.699219 27.808594 C 60.601562 28.339844 58.179688 28.945312 55.074219 28.945312 C 46.972656 28.945312 42.046875 23.871094 42.046875 16.109375 C 42.046875 7.703125 47.917969 2.667969 55.71875 2.667969 C 58.785156 2.667969 60.945312 3.273438 61.890625 3.765625 L 60.90625 7.476562 C 59.695312 6.945312 57.988281 6.492188 55.90625 6.492188 C 50.71875 6.492188 46.972656 9.746094 46.972656 15.882812 C 46.972656 21.484375 50.230469 25.042969 55.871094 25.042969 C 57.726562 25.042969 59.695312 24.664062 60.945312 24.132812 Z M 61.699219 27.808594 " clip-rule="nonzero"/></clipPath><clipPath id="693012ec5a"><path d="M 65.675781 3.046875 L 80.519531 3.046875 L 80.519531 6.871094 L 65.675781 6.871094 Z M 65.675781 6.871094 L 70.332031 6.871094 L 70.332031 13.460938 L 65.675781 13.460938 Z M 65.675781 13.460938 L 79.949219 13.460938 L 79.949219 17.246094 L 65.675781 17.246094 Z M 65.675781 17.246094 L 70.332031 17.246094 L 70.332031 24.746094 L 65.675781 24.746094 Z M 65.675781 24.746094 L 81.085938 24.746094 L 81.085938 28.570312 L 65.675781 28.570312 Z M 65.675781 24.746094 " clip-rule="nonzero"/></clipPath><clipPath id="1589870136"><path d="M 93.011719 2.855469 L 114.910156 2.855469 L 114.910156 28.84375 L 93.011719 28.84375 Z M 93.011719 2.855469 " clip-rule="nonzero"/></clipPath><clipPath id="c719c21a18"><path d="M 97.671875 25.046875 C 98.316406 25.160156 99.300781 25.160156 100.246094 25.160156 C 106.304688 25.195312 109.902344 21.828125 109.902344 15.351562 C 109.941406 9.746094 106.683594 6.492188 100.851562 6.492188 C 99.375 6.492188 98.355469 6.605469 97.671875 6.757812 Z M 93.011719 3.425781 C 95.097656 3.082031 97.671875 2.855469 100.4375 2.855469 C 105.207031 2.855469 108.464844 3.84375 110.8125 5.808594 C 113.308594 7.816406 114.828125 10.882812 114.828125 15.199219 C 114.828125 19.78125 113.273438 23.152344 110.851562 25.347656 C 108.3125 27.660156 104.257812 28.832031 99.296875 28.832031 C 96.609375 28.832031 94.5625 28.679688 93.011719 28.492188 Z M 93.011719 3.425781 " clip-rule="nonzero"/></clipPath><clipPath id="4f157d6565"><path d="M 3.296875 35.566406 L 9.398438 35.566406 L 9.398438 44.265625 L 3.296875 44.265625 Z M 3.296875 35.566406 " clip-rule="nonzero"/></clipPath><clipPath id="ed9dad4627"><path d="M 4.855469 39.578125 L 5.785156 39.578125 C 6.839844 39.578125 7.492188 39.015625 7.492188 38.164062 C 7.492188 37.234375 6.839844 36.789062 5.824219 36.789062 C 5.328125 36.789062 5.007812 36.828125 4.855469 36.863281 Z M 3.300781 35.792969 C 3.898438 35.679688 4.765625 35.601562 5.671875 35.601562 C 6.90625 35.601562 7.734375 35.808594 8.320312 36.289062 C 8.789062 36.683594 9.058594 37.285156 9.058594 38.023438 C 9.058594 39.128906 8.308594 39.882812 7.492188 40.160156 L 7.492188 40.199219 C 8.113281 40.429688 8.484375 41.027344 8.6875 41.855469 C 8.96875 42.925781 9.199219 43.917969 9.363281 44.25 L 7.757812 44.25 C 7.628906 43.996094 7.414062 43.292969 7.183594 42.222656 C 6.929688 41.101562 6.535156 40.746094 5.644531 40.71875 L 4.855469 40.71875 L 4.855469 44.25 L 3.300781 44.25 Z M 3.300781 35.792969 " clip-rule="nonzero"/></clipPath><clipPath id="efa8b4649a"><path d="M 10.546875 35.667969 L 15.539062 35.667969 L 15.539062 36.953125 L 10.546875 36.953125 Z M 10.546875 36.953125 L 12.113281 36.953125 L 12.113281 39.167969 L 10.546875 39.167969 Z M 10.546875 39.167969 L 15.347656 39.167969 L 15.347656 40.441406 L 10.546875 40.441406 Z M 10.546875 40.441406 L 12.113281 40.441406 L 12.113281 42.964844 L 10.546875 42.964844 Z M 10.546875 42.964844 L 15.730469 42.964844 L 15.730469 44.25 L 10.546875 44.25 Z M 10.546875 42.964844 " clip-rule="nonzero"/></clipPath><clipPath id="452305c811"><path d="M 16.433594 35.652344 L 20.65625 35.652344 L 20.65625 44.394531 L 16.433594 44.394531 Z M 16.433594 35.652344 " clip-rule="nonzero"/></clipPath><clipPath id="367bcd5e68"><path d="M 19.066406 35.667969 L 20.632812 35.667969 L 20.632812 41.234375 C 20.632812 43.601562 19.488281 44.390625 17.792969 44.390625 C 17.347656 44.390625 16.8125 44.316406 16.46875 44.1875 L 16.660156 42.925781 C 16.914062 43.015625 17.257812 43.078125 17.628906 43.078125 C 18.519531 43.078125 19.066406 42.671875 19.066406 41.183594 Z M 19.066406 35.667969 " clip-rule="nonzero"/></clipPath><clipPath id="1f0c933749"><path d="M 22.320312 35.652344 L 29.0625 35.652344 L 29.0625 44.394531 L 22.320312 44.394531 Z M 22.320312 35.652344 " clip-rule="nonzero"/></clipPath><clipPath id="bc03e5693f"><path d="M 23.90625 35.667969 L 23.90625 40.671875 C 23.90625 42.351562 24.605469 43.128906 25.660156 43.128906 C 26.792969 43.128906 27.472656 42.351562 27.472656 40.671875 L 27.472656 35.667969 L 29.039062 35.667969 L 29.039062 40.570312 C 29.039062 43.21875 27.675781 44.390625 25.613281 44.390625 C 23.625 44.390625 22.339844 43.28125 22.339844 40.582031 L 22.339844 35.667969 Z M 23.90625 35.667969 " clip-rule="nonzero"/></clipPath><clipPath id="966a6ee86d"><path d="M 30 35.652344 L 37.59375 35.652344 L 37.59375 44.265625 L 30 44.265625 Z M 30 35.652344 " clip-rule="nonzero"/></clipPath><clipPath id="b1d5534287"><path d="M 32.792969 44.25 L 30.015625 35.667969 L 31.722656 35.667969 L 32.898438 39.578125 C 33.226562 40.660156 33.519531 41.667969 33.738281 42.695312 L 33.761719 42.695312 C 33.992188 41.679688 34.308594 40.632812 34.640625 39.589844 L 35.890625 35.667969 L 37.558594 35.667969 L 34.589844 44.25 Z M 32.792969 44.25 " clip-rule="nonzero"/></clipPath><clipPath id="e1088e6ba6"><path d="M 38.488281 35.667969 L 43.476562 35.667969 L 43.476562 36.953125 L 38.488281 36.953125 Z M 38.488281 36.953125 L 40.054688 36.953125 L 40.054688 39.167969 L 38.488281 39.167969 Z M 38.488281 39.167969 L 43.289062 39.167969 L 43.289062 40.441406 L 38.488281 40.441406 Z M 38.488281 40.441406 L 40.054688 40.441406 L 40.054688 42.964844 L 38.488281 42.964844 Z M 38.488281 42.964844 L 43.667969 42.964844 L 43.667969 44.25 L 38.488281 44.25 Z M 38.488281 42.964844 " clip-rule="nonzero"/></clipPath><clipPath id="43b6ff4963"><path d="M 45.015625 35.652344 L 51.882812 35.652344 L 51.882812 44.265625 L 45.015625 44.265625 Z M 45.015625 35.652344 " clip-rule="nonzero"/></clipPath><clipPath id="752b31dab7"><path d="M 45.03125 44.25 L 45.03125 35.667969 L 46.828125 35.667969 L 49.046875 39.347656 C 49.605469 40.300781 50.113281 41.292969 50.507812 42.222656 L 50.535156 42.210938 C 50.417969 41.078125 50.394531 39.96875 50.394531 38.65625 L 50.394531 35.667969 L 51.847656 35.667969 L 51.847656 44.25 L 50.214844 44.25 L 47.972656 40.46875 C 47.425781 39.527344 46.867188 38.484375 46.445312 37.515625 L 46.394531 37.527344 C 46.457031 38.636719 46.484375 39.769531 46.484375 41.183594 L 46.484375 44.25 Z M 45.03125 44.25 " clip-rule="nonzero"/></clipPath><clipPath id="1c91eda33d"><path d="M 53.652344 35.667969 L 58.644531 35.667969 L 58.644531 36.953125 L 53.652344 36.953125 Z M 53.652344 36.953125 L 55.21875 36.953125 L 55.21875 39.167969 L 53.652344 39.167969 Z M 53.652344 39.167969 L 58.453125 39.167969 L 58.453125 40.441406 L 53.652344 40.441406 Z M 53.652344 40.441406 L 55.21875 40.441406 L 55.21875 42.964844 L 53.652344 42.964844 Z M 53.652344 42.964844 L 58.835938 42.964844 L 58.835938 44.25 L 53.652344 44.25 Z M 53.652344 42.964844 " clip-rule="nonzero"/></clipPath><clipPath id="2647f32ff0"><path d="M 59.816406 35.523438 L 65.449219 35.523438 L 65.449219 44.394531 L 59.816406 44.394531 Z M 59.816406 35.523438 " clip-rule="nonzero"/></clipPath><clipPath id="eed88e74d9"><path d="M 60.191406 42.542969 C 60.6875 42.835938 61.464844 43.089844 62.265625 43.089844 C 63.257812 43.089844 63.816406 42.621094 63.816406 41.917969 C 63.816406 41.269531 63.382812 40.886719 62.300781 40.496094 C 60.878906 39.996094 59.972656 39.234375 59.972656 38.011719 C 59.972656 36.597656 61.144531 35.542969 63.015625 35.542969 C 63.945312 35.542969 64.621094 35.746094 65.066406 35.960938 L 64.699219 37.234375 C 64.378906 37.070312 63.78125 36.828125 62.980469 36.828125 C 61.984375 36.828125 61.566406 37.347656 61.566406 37.859375 C 61.566406 38.523438 62.0625 38.828125 63.210938 39.261719 C 64.699219 39.832031 65.414062 40.582031 65.414062 41.804688 C 65.414062 43.195312 64.367188 44.378906 62.164062 44.378906 C 61.246094 44.378906 60.304688 44.125 59.835938 43.84375 Z M 60.191406 42.542969 " clip-rule="nonzero"/></clipPath><clipPath id="ac2e726e4d"><path d="M 66.34375 35.523438 L 73.042969 35.523438 L 73.042969 44.394531 L 66.34375 44.394531 Z M 66.34375 35.523438 " clip-rule="nonzero"/></clipPath><clipPath id="26d4158f30"><path d="M 72.972656 43.996094 C 72.605469 44.175781 71.789062 44.378906 70.742188 44.378906 C 68.019531 44.378906 66.363281 42.671875 66.363281 40.0625 C 66.363281 37.234375 68.335938 35.542969 70.960938 35.542969 C 71.992188 35.542969 72.71875 35.746094 73.035156 35.910156 L 72.703125 37.160156 C 72.296875 36.980469 71.722656 36.828125 71.023438 36.828125 C 69.277344 36.828125 68.019531 37.921875 68.019531 39.984375 C 68.019531 41.871094 69.113281 43.066406 71.011719 43.066406 C 71.632812 43.066406 72.296875 42.941406 72.71875 42.761719 Z M 72.972656 43.996094 " clip-rule="nonzero"/></clipPath><clipPath id="8ed62de4da"><path d="M 74.308594 35.667969 L 75.875 35.667969 L 75.875 44.25 L 74.308594 44.25 Z M 74.308594 35.667969 " clip-rule="nonzero"/></clipPath><clipPath id="d587ff8374"><path d="M 77.433594 35.652344 L 86.648438 35.652344 L 86.648438 44.265625 L 77.433594 44.265625 Z M 77.433594 35.652344 " clip-rule="nonzero"/></clipPath><clipPath id="e457f02294"><path d="M 84.917969 40.75 C 84.867188 39.640625 84.804688 38.316406 84.820312 37.144531 L 84.78125 37.144531 C 84.5 38.191406 84.144531 39.347656 83.761719 40.429688 L 82.5 44.148438 L 81.304688 44.148438 L 80.160156 40.480469 C 79.828125 39.386719 79.519531 38.214844 79.292969 37.144531 L 79.269531 37.144531 C 79.230469 38.265625 79.179688 39.628906 79.117188 40.800781 L 78.925781 44.25 L 77.460938 44.25 L 78.035156 35.667969 L 80.097656 35.667969 L 81.21875 39.121094 C 81.523438 40.125 81.792969 41.144531 82.007812 42.101562 L 82.042969 42.101562 C 82.273438 41.171875 82.566406 40.113281 82.898438 39.109375 L 84.082031 35.667969 L 86.121094 35.667969 L 86.617188 44.25 L 85.089844 44.25 Z M 84.917969 40.75 " clip-rule="nonzero"/></clipPath><clipPath id="d3265d16a2"><path d="M 88.203125 35.667969 L 93.195312 35.667969 L 93.195312 36.953125 L 88.203125 36.953125 Z M 88.203125 36.953125 L 89.769531 36.953125 L 89.769531 39.167969 L 88.203125 39.167969 Z M 88.203125 39.167969 L 93.003906 39.167969 L 93.003906 40.441406 L 88.203125 40.441406 Z M 88.203125 40.441406 L 89.769531 40.441406 L 89.769531 42.964844 L 88.203125 42.964844 Z M 88.203125 42.964844 L 93.386719 42.964844 L 93.386719 44.25 L 88.203125 44.25 Z M 88.203125 42.964844 " clip-rule="nonzero"/></clipPath><clipPath id="97995e3347"><path d="M 94.710938 35.652344 L 101.578125 35.652344 L 101.578125 44.265625 L 94.710938 44.265625 Z M 94.710938 35.652344 " clip-rule="nonzero"/></clipPath><clipPath id="2df5fbe307"><path d="M 94.75 44.25 L 94.75 35.667969 L 96.546875 35.667969 L 98.761719 39.347656 C 99.324219 40.300781 99.832031 41.292969 100.226562 42.222656 L 100.25 42.210938 C 100.136719 41.078125 100.113281 39.96875 100.113281 38.65625 L 100.113281 35.667969 L 101.5625 35.667969 L 101.5625 44.25 L 99.933594 44.25 L 97.695312 40.46875 C 97.144531 39.527344 96.585938 38.484375 96.164062 37.515625 L 96.113281 37.527344 C 96.175781 38.636719 96.203125 39.769531 96.203125 41.183594 L 96.203125 44.25 Z M 94.75 44.25 " clip-rule="nonzero"/></clipPath><clipPath id="06b2345da2"><path d="M 102.558594 35.652344 L 109.085938 35.652344 L 109.085938 44.265625 L 102.558594 44.265625 Z M 102.558594 35.652344 " clip-rule="nonzero"/></clipPath><clipPath id="0600e89942"><path d="M 105.015625 36.980469 L 102.570312 36.980469 L 102.570312 35.667969 L 109.050781 35.667969 L 109.050781 36.980469 L 106.582031 36.980469 L 106.582031 44.25 L 105.011719 44.25 Z M 105.015625 36.980469 " clip-rule="nonzero"/></clipPath><clipPath id="a81be7a698"><path d="M 109.214844 35.523438 L 117.320312 35.523438 L 117.320312 44.394531 L 109.214844 44.394531 Z M 109.214844 35.523438 " clip-rule="nonzero"/></clipPath><clipPath id="73cb52c8b2"><path d="M 113.292969 43.128906 C 114.808594 43.128906 115.664062 41.730469 115.664062 39.933594 C 115.664062 38.316406 114.859375 36.789062 113.292969 36.789062 C 111.726562 36.789062 110.910156 38.277344 110.910156 39.984375 C 110.910156 41.6875 111.777344 43.128906 113.28125 43.128906 Z M 113.21875 44.390625 C 110.785156 44.390625 109.257812 42.53125 109.257812 40.023438 C 109.257812 37.398438 110.925781 35.527344 113.34375 35.527344 C 115.839844 35.527344 117.316406 37.425781 117.316406 39.871094 C 117.316406 42.75 115.574219 44.390625 113.230469 44.390625 Z M 113.21875 44.390625 " clip-rule="nonzero"/></clipPath><clipPath id="6935515c1c"><path d="M 117.554688 2.628906 L 141.523438 2.628906 L 141.523438 29 L 117.554688 29 Z M 117.554688 2.628906 " clip-rule="nonzero"/></clipPath><clipPath id="8fc81c5512"><path d="M 129.558594 25.234375 C 134.066406 25.234375 136.601562 21.070312 136.601562 15.734375 C 136.601562 10.925781 134.21875 6.378906 129.558594 6.378906 C 124.902344 6.378906 122.476562 10.808594 122.476562 15.882812 C 122.476562 20.957031 125.050781 25.234375 129.519531 25.234375 Z M 129.332031 28.984375 C 122.101562 28.984375 117.554688 23.457031 117.554688 15.996094 C 117.554688 8.195312 122.515625 2.628906 129.710938 2.628906 C 137.132812 2.628906 141.523438 8.269531 141.523438 15.542969 C 141.523438 24.097656 136.335938 28.984375 129.367188 28.984375 Z M 129.332031 28.984375 " clip-rule="nonzero"/></clipPath><clipPath id="02a1b846d9"><path d="M 121.300781 35.667969 L 126.269531 35.667969 L 126.269531 36.953125 L 121.300781 36.953125 Z M 121.300781 36.953125 L 122.867188 36.953125 L 122.867188 39.324219 L 121.300781 39.324219 Z M 121.300781 39.324219 L 126.027344 39.324219 L 126.027344 40.597656 L 121.300781 40.597656 Z M 121.300781 40.597656 L 122.867188 40.597656 L 122.867188 44.25 L 121.300781 44.25 Z M 121.300781 40.597656 " clip-rule="nonzero"/></clipPath><clipPath id="9e2b63f680"><path d="M 126.230469 35.660156 L 133.804688 35.660156 L 133.804688 44.257812 L 126.230469 44.257812 Z M 126.230469 35.660156 " clip-rule="nonzero"/></clipPath><clipPath id="7d02cc8eeb"><path d="M 131.046875 40.636719 L 130.371094 38.519531 C 130.207031 38 130.066406 37.414062 129.9375 36.917969 L 129.914062 36.917969 L 129.503906 38.519531 L 128.84375 40.636719 Z M 128.589844 41.816406 L 127.851562 44.25 L 126.230469 44.25 L 128.984375 35.667969 L 130.980469 35.667969 L 133.769531 44.25 L 132.089844 44.25 L 131.3125 41.816406 Z M 128.589844 41.816406 " clip-rule="nonzero"/></clipPath><clipPath id="0393a8a3c2"><path d="M 134.230469 35.535156 L 140.953125 35.535156 L 140.953125 44.386719 L 134.230469 44.386719 Z M 134.230469 35.535156 " clip-rule="nonzero"/></clipPath><clipPath id="28655d0370"><path d="M 140.855469 43.996094 C 140.484375 44.175781 139.667969 44.378906 138.625 44.378906 C 135.898438 44.378906 134.242188 42.671875 134.242188 40.0625 C 134.242188 37.234375 136.21875 35.539062 138.839844 35.539062 C 139.871094 35.539062 140.597656 35.746094 140.914062 35.910156 L 140.585938 37.15625 C 140.175781 36.976562 139.605469 36.828125 138.90625 36.828125 C 137.160156 36.828125 135.898438 37.921875 135.898438 39.984375 C 135.898438 41.871094 136.996094 43.066406 138.890625 43.066406 C 139.515625 43.066406 140.175781 42.9375 140.597656 42.757812 Z M 140.855469 43.996094 " clip-rule="nonzero"/></clipPath><clipPath id="7ba3e9a196"><path d="M 142.1875 35.667969 L 143.757812 35.667969 L 143.757812 44.25 L 142.1875 44.25 Z M 142.1875 35.667969 " clip-rule="nonzero"/></clipPath><clipPath id="3562f5f7e2"><path d="M 144.914062 35.660156 L 152.488281 35.660156 L 152.488281 44.257812 L 144.914062 44.257812 Z M 144.914062 35.660156 " clip-rule="nonzero"/></clipPath><clipPath id="10ddf78a49"><path d="M 149.730469 40.636719 L 149.054688 38.519531 C 148.890625 38 148.746094 37.414062 148.621094 36.917969 L 148.59375 36.917969 L 148.1875 38.519531 L 147.527344 40.636719 Z M 147.269531 41.820312 L 146.53125 44.253906 L 144.917969 44.253906 L 147.664062 35.667969 L 149.664062 35.667969 L 152.453125 44.25 L 150.773438 44.25 L 149.996094 41.816406 Z M 147.269531 41.820312 " clip-rule="nonzero"/></clipPath><clipPath id="f4a50473ce"><path d="M 153.652344 35.667969 L 155.21875 35.667969 L 155.21875 42.9375 L 153.652344 42.9375 Z M 153.652344 42.9375 L 158.746094 42.9375 L 158.746094 44.25 L 153.652344 44.25 Z M 153.652344 42.9375 " clip-rule="nonzero"/></clipPath><clipPath id="d79ed3e08e"><path d="M 144.171875 2.667969 L 164.089844 2.667969 L 164.089844 29 L 144.171875 29 Z M 144.171875 2.667969 " clip-rule="nonzero"/></clipPath><clipPath id="291dcee867"><path d="M 163.824219 27.808594 C 162.726562 28.339844 160.304688 28.945312 157.199219 28.945312 C 149.09375 28.949219 144.171875 23.875 144.171875 16.109375 C 144.171875 7.703125 150.039062 2.667969 157.839844 2.667969 C 160.90625 2.667969 163.066406 3.273438 164.011719 3.765625 L 163.027344 7.476562 C 161.816406 6.945312 160.113281 6.492188 158.03125 6.492188 C 152.84375 6.492188 149.09375 9.75 149.09375 15.882812 C 149.09375 21.488281 152.351562 25.046875 157.992188 25.046875 C 159.847656 25.046875 161.816406 24.667969 163.066406 24.136719 Z M 163.824219 27.808594 " clip-rule="nonzero"/></clipPath><clipPath id="0d05e716ae"><path d="M 162.265625 35.667969 L 167.257812 35.667969 L 167.257812 36.953125 L 162.265625 36.953125 Z M 162.265625 36.953125 L 163.832031 36.953125 L 163.832031 39.171875 L 162.265625 39.171875 Z M 162.265625 39.171875 L 167.066406 39.171875 L 167.066406 40.441406 L 162.265625 40.441406 Z M 162.265625 40.441406 L 163.832031 40.441406 L 163.832031 42.964844 L 162.265625 42.964844 Z M 162.265625 42.964844 L 167.445312 42.964844 L 167.445312 44.25 L 162.265625 44.25 Z M 162.265625 42.964844 " clip-rule="nonzero"/></clipPath><clipPath id="2a9670fade"><path d="M 166.171875 3.042969 L 185.445312 3.042969 L 185.445312 6.945312 L 166.171875 6.945312 Z M 173.441406 6.945312 L 178.097656 6.945312 L 178.097656 28.566406 L 173.441406 28.566406 Z M 173.441406 6.945312 " clip-rule="nonzero"/></clipPath><clipPath id="fbb1b1ae33"><path d="M 186.007812 2.601562 L 210.089844 2.601562 L 210.089844 29 L 186.007812 29 Z M 186.007812 2.601562 " clip-rule="nonzero"/></clipPath><clipPath id="eae13e3925"><path d="M 198.058594 25.234375 C 202.5625 25.234375 205.101562 21.070312 205.101562 15.730469 C 205.101562 10.925781 202.714844 6.378906 198.058594 6.378906 C 193.398438 6.378906 190.976562 10.808594 190.976562 15.882812 C 190.976562 20.957031 193.550781 25.234375 198.019531 25.234375 Z M 197.832031 28.984375 C 190.597656 28.984375 186.054688 23.457031 186.054688 15.996094 C 186.054688 8.195312 191.015625 2.628906 198.210938 2.628906 C 205.632812 2.628906 210.023438 8.269531 210.023438 15.542969 C 210.023438 24.097656 204.835938 28.984375 197.871094 28.984375 Z M 197.832031 28.984375 " clip-rule="nonzero"/></clipPath><clipPath id="c59fc74eb5"><path d="M 214.035156 2.855469 L 232.058594 2.855469 L 232.058594 28.625 L 214.035156 28.625 Z M 214.035156 2.855469 " clip-rule="nonzero"/></clipPath><clipPath id="73fc715338"><path d="M 218.652344 14.671875 L 221.417969 14.671875 C 224.5625 14.671875 226.492188 13.003906 226.492188 10.464844 C 226.492188 7.703125 224.5625 6.375 221.53125 6.375 C 220.054688 6.375 219.109375 6.488281 218.65625 6.605469 Z M 214.035156 3.425781 C 215.8125 3.085938 218.390625 2.855469 221.074219 2.855469 C 224.75 2.855469 227.210938 3.464844 228.953125 4.902344 C 230.351562 6.074219 231.148438 7.855469 231.148438 10.050781 C 231.148438 13.347656 228.914062 15.578125 226.492188 16.414062 L 226.492188 16.523438 C 228.347656 17.207031 229.445312 18.988281 230.050781 21.449219 C 230.882812 24.628906 231.566406 27.582031 232.058594 28.566406 L 227.285156 28.566406 C 226.910156 27.808594 226.265625 25.726562 225.582031 22.546875 C 224.824219 19.214844 223.652344 18.152344 221 18.078125 L 218.652344 18.078125 L 218.652344 28.566406 L 214.035156 28.566406 Z M 214.035156 3.425781 " clip-rule="nonzero"/></clipPath><clipPath id="2a109baf92"><path d="M 187.753906 35.566406 L 193.855469 35.566406 L 193.855469 44.265625 L 187.753906 44.265625 Z M 187.753906 35.566406 " clip-rule="nonzero"/></clipPath><clipPath id="46451a75e0"><path d="M 189.339844 39.578125 L 190.269531 39.578125 C 191.324219 39.578125 191.976562 39.015625 191.976562 38.164062 C 191.976562 37.234375 191.324219 36.789062 190.308594 36.789062 C 189.8125 36.789062 189.492188 36.828125 189.339844 36.863281 Z M 187.785156 35.792969 C 188.382812 35.679688 189.25 35.601562 190.15625 35.601562 C 191.390625 35.601562 192.21875 35.808594 192.804688 36.289062 C 193.273438 36.683594 193.542969 37.285156 193.542969 38.023438 C 193.542969 39.128906 192.792969 39.882812 191.976562 40.160156 L 191.976562 40.199219 C 192.601562 40.429688 192.96875 41.027344 193.171875 41.855469 C 193.453125 42.925781 193.683594 43.917969 193.847656 44.25 L 192.242188 44.25 C 192.113281 43.996094 191.898438 43.292969 191.667969 42.222656 C 191.414062 41.101562 191.019531 40.746094 190.128906 40.71875 L 189.339844 40.71875 L 189.339844 44.25 L 187.785156 44.25 Z M 187.785156 35.792969 " clip-rule="nonzero"/></clipPath><clipPath id="452ecb286d"><path d="M 194.75 35.566406 L 200.554688 35.566406 L 200.554688 44.265625 L 194.75 44.265625 Z M 194.75 35.566406 " clip-rule="nonzero"/></clipPath><clipPath id="b346098260"><path d="M 196.328125 39.578125 L 197.257812 39.578125 C 198.316406 39.578125 198.964844 39.015625 198.964844 38.164062 C 198.964844 37.234375 198.316406 36.789062 197.296875 36.789062 C 196.800781 36.789062 196.484375 36.828125 196.332031 36.863281 Z M 194.777344 35.792969 C 195.375 35.679688 196.242188 35.601562 197.144531 35.601562 C 198.382812 35.601562 199.207031 35.808594 199.792969 36.289062 C 200.265625 36.683594 200.53125 37.285156 200.53125 38.023438 C 200.53125 39.128906 200.226562 39.871094 199.300781 40.585938 C 198.648438 41.085938 196.328125 40.910156 196.328125 40.910156 L 196.328125 44.25 L 194.773438 44.25 Z M 194.777344 35.792969 " clip-rule="nonzero"/></clipPath><clipPath id="ebbacdbb80"><path d="M 210.746094 35.566406 L 216.847656 35.566406 L 216.847656 44.265625 L 210.746094 44.265625 Z M 210.746094 35.566406 " clip-rule="nonzero"/></clipPath><clipPath id="0a23e705c1"><path d="M 212.324219 39.578125 L 213.253906 39.578125 C 214.308594 39.578125 214.960938 39.015625 214.960938 38.164062 C 214.960938 37.234375 214.308594 36.789062 213.292969 36.789062 C 212.796875 36.789062 212.476562 36.828125 212.324219 36.863281 Z M 210.769531 35.792969 C 211.367188 35.679688 212.234375 35.601562 213.136719 35.601562 C 214.375 35.601562 215.199219 35.808594 215.789062 36.289062 C 216.257812 36.683594 216.527344 37.285156 216.527344 38.023438 C 216.527344 39.128906 215.773438 39.882812 214.957031 40.160156 L 214.957031 40.199219 C 215.582031 40.429688 215.953125 41.027344 216.15625 41.855469 C 216.433594 42.925781 216.664062 43.917969 216.828125 44.25 L 215.226562 44.25 C 215.097656 43.996094 214.882812 43.292969 214.652344 42.222656 C 214.398438 41.101562 214.003906 40.746094 213.113281 40.71875 L 212.324219 40.71875 L 212.324219 44.25 L 210.769531 44.25 Z M 210.769531 35.792969 " clip-rule="nonzero"/></clipPath><clipPath id="611d619c34"><path d="M 177.988281 35.523438 L 186.09375 35.523438 L 186.09375 44.394531 L 177.988281 44.394531 Z M 177.988281 35.523438 " clip-rule="nonzero"/></clipPath><clipPath id="7d49dbaffb"><path d="M 182.027344 43.128906 C 183.542969 43.128906 184.398438 41.730469 184.398438 39.933594 C 184.398438 38.316406 183.59375 36.789062 182.027344 36.789062 C 180.460938 36.789062 179.644531 38.277344 179.644531 39.984375 C 179.644531 41.6875 180.511719 43.128906 182.015625 43.128906 Z M 181.953125 44.390625 C 179.519531 44.390625 177.988281 42.53125 177.988281 40.023438 C 177.988281 37.398438 179.660156 35.527344 182.078125 35.527344 C 184.574219 35.527344 186.050781 37.425781 186.050781 39.871094 C 186.050781 42.75 184.308594 44.390625 181.964844 44.390625 Z M 181.953125 44.390625 " clip-rule="nonzero"/></clipPath><clipPath id="4ed0bd45dc"><path d="M 201.40625 35.523438 L 209.511719 35.523438 L 209.511719 44.394531 L 201.40625 44.394531 Z M 201.40625 35.523438 " clip-rule="nonzero"/></clipPath><clipPath id="9df79a54d3"><path d="M 205.480469 43.128906 C 206.996094 43.128906 207.851562 41.730469 207.851562 39.933594 C 207.851562 38.316406 207.046875 36.789062 205.480469 36.789062 C 203.914062 36.789062 203.101562 38.277344 203.101562 39.984375 C 203.101562 41.6875 203.964844 43.128906 205.46875 43.128906 Z M 205.40625 44.390625 C 202.972656 44.390625 201.445312 42.53125 201.445312 40.023438 C 201.445312 37.398438 203.113281 35.527344 205.53125 35.527344 C 208.03125 35.527344 209.507812 37.425781 209.507812 39.871094 C 209.507812 42.75 207.761719 44.390625 205.417969 44.390625 Z M 205.40625 44.390625 " clip-rule="nonzero"/></clipPath><clipPath id="22f59badff"><path d="M 171.203125 35.523438 L 177.902344 35.523438 L 177.902344 44.394531 L 171.203125 44.394531 Z M 171.203125 35.523438 " clip-rule="nonzero"/></clipPath><clipPath id="3e3c25e9e8"><path d="M 177.820312 43.996094 C 177.453125 44.175781 176.632812 44.378906 175.59375 44.378906 C 172.863281 44.378906 171.210938 42.671875 171.210938 40.058594 C 171.210938 37.234375 173.183594 35.539062 175.804688 35.539062 C 176.839844 35.539062 177.5625 35.742188 177.882812 35.90625 L 177.550781 37.15625 C 177.144531 36.976562 176.570312 36.824219 175.871094 36.824219 C 174.125 36.824219 172.863281 37.917969 172.863281 39.984375 C 172.863281 41.867188 173.960938 43.066406 175.855469 43.066406 C 176.480469 43.066406 177.144531 42.9375 177.5625 42.757812 Z M 177.820312 43.996094 " clip-rule="nonzero"/></clipPath><clipPath id="1f9c2232a8"><path d="M 217.359375 35.652344 L 224.953125 35.652344 L 224.953125 44.265625 L 217.359375 44.265625 Z M 217.359375 35.652344 " clip-rule="nonzero"/></clipPath><clipPath id="61fd20960c"><path d="M 222.183594 40.632812 L 221.511719 38.519531 C 221.34375 37.996094 221.203125 37.410156 221.078125 36.914062 L 221.050781 36.914062 L 220.644531 38.519531 L 219.984375 40.632812 Z M 219.726562 41.820312 L 218.988281 44.25 L 217.371094 44.25 L 220.121094 35.667969 L 222.121094 35.667969 L 224.910156 44.25 L 223.230469 44.25 L 222.453125 41.816406 Z M 219.726562 41.820312 " clip-rule="nonzero"/></clipPath><clipPath id="6677e0c63f"><path d="M 226.109375 35.667969 L 227.675781 35.667969 L 227.675781 42.941406 L 226.109375 42.941406 Z M 226.109375 42.941406 L 231.203125 42.941406 L 231.203125 44.25 L 226.109375 44.25 Z M 226.109375 42.941406 " clip-rule="nonzero"/></clipPath></defs><g clip-path="url(#b49822094b)"><path fill="#eaa799" d="M 2.546875 1.640625 L 62.871094 1.640625 L 62.871094 29.976562 L 2.546875 29.976562 Z M 2.546875 1.640625 " fill-opacity="1" fill-rule="nonzero"/></g><g clip-path="url(#ba380e26bb)"><g clip-path="url(#bb638363f9)"><path fill="#eaa799" d="M 2.546875 1.640625 L 62.871094 1.640625 L 62.871094 29.976562 L 2.546875 29.976562 Z M 2.546875 1.640625 " fill-opacity="1" fill-rule="nonzero"/></g></g><g clip-path="url(#bb8290899b)"><g clip-path="url(#185ae9ea3f)"><path fill="#eaa799" d="M 2.546875 1.640625 L 62.871094 1.640625 L 62.871094 29.976562 L 2.546875 29.976562 Z M 2.546875 1.640625 " fill-opacity="1" fill-rule="nonzero"/></g></g><g clip-path="url(#693012ec5a)"><path fill="#eaa799" d="M 65.675781 3.046875 L 81.085938 3.046875 L 81.085938 28.570312 L 65.675781 28.570312 Z M 65.675781 3.046875 " fill-opacity="1" fill-rule="nonzero"/></g><g clip-path="url(#1589870136)"><g clip-path="url(#c719c21a18)"><path fill="#eaa799" d="M 93.011719 2.855469 L 114.824219 2.855469 L 114.824219 28.84375 L 93.011719 28.84375 Z M 93.011719 2.855469 " fill-opacity="1" fill-rule="nonzero"/></g></g><g clip-path="url(#4f157d6565)"><g clip-path="url(#ed9dad4627)"><path fill="#eaa799" d="M 2.273438 34.5 L 118.34375 34.5 L 118.34375 45.417969 L 2.273438 45.417969 Z M 2.273438 34.5 " fill-opacity="1" fill-rule="nonzero"/></g></g><g clip-path="url(#efa8b4649a)"><path fill="#eaa799" d="M 2.273438 34.5 L 118.34375 34.5 L 118.34375 45.417969 L 2.273438 45.417969 Z M 2.273438 34.5 " fill-opacity="1" fill-rule="nonzero"/></g><g clip-path="url(#452305c811)"><g clip-path="url(#367bcd5e68)"><path fill="#eaa799" d="M 2.273438 34.5 L 118.34375 34.5 L 118.34375 45.417969 L 2.273438 45.417969 Z M 2.273438 34.5 " fill-opacity="1" fill-rule="nonzero"/></g></g><g clip-path="url(#1f0c933749)"><g clip-path="url(#bc03e5693f)"><path fill="#eaa799" d="M 2.273438 34.5 L 118.34375 34.5 L 118.34375 45.417969 L 2.273438 45.417969 Z M 2.273438 34.5 " fill-opacity="1" fill-rule="nonzero"/></g></g><g clip-path="url(#966a6ee86d)"><g clip-path="url(#b1d5534287)"><path fill="#eaa799" d="M 2.273438 34.5 L 118.34375 34.5 L 118.34375 45.417969 L 2.273438 45.417969 Z M 2.273438 34.5 " fill-opacity="1" fill-rule="nonzero"/></g></g><g clip-path="url(#e1088e6ba6)"><path fill="#eaa799" d="M 2.273438 34.5 L 118.34375 34.5 L 118.34375 45.417969 L 2.273438 45.417969 Z M 2.273438 34.5 " fill-opacity="1" fill-rule="nonzero"/></g><g clip-path="url(#43b6ff4963)"><g clip-path="url(#752b31dab7)"><path fill="#eaa799" d="M 2.273438 34.5 L 118.34375 34.5 L 118.34375 45.417969 L 2.273438 45.417969 Z M 2.273438 34.5 " fill-opacity="1" fill-rule="nonzero"/></g></g><g clip-path="url(#1c91eda33d)"><path fill="#eaa799" d="M 2.273438 34.5 L 118.34375 34.5 L 118.34375 45.417969 L 2.273438 45.417969 Z M 2.273438 34.5 " fill-opacity="1" fill-rule="nonzero"/></g><g clip-path="url(#2647f32ff0)"><g clip-path="url(#eed88e74d9)"><path fill="#eaa799" d="M 2.273438 34.5 L 118.34375 34.5 L 118.34375 45.417969 L 2.273438 45.417969 Z M 2.273438 34.5 " fill-opacity="1" fill-rule="nonzero"/></g></g><g clip-path="url(#ac2e726e4d)"><g clip-path="url(#26d4158f30)"><path fill="#eaa799" d="M 2.273438 34.5 L 118.34375 34.5 L 118.34375 45.417969 L 2.273438 45.417969 Z M 2.273438 34.5 " fill-opacity="1" fill-rule="nonzero"/></g></g><g clip-path="url(#8ed62de4da)"><path fill="#eaa799" d="M 2.273438 34.5 L 118.34375 34.5 L 118.34375 45.417969 L 2.273438 45.417969 Z M 2.273438 34.5 " fill-opacity="1" fill-rule="nonzero"/></g><g clip-path="url(#d587ff8374)"><g clip-path="url(#e457f02294)"><path fill="#eaa799" d="M 2.273438 34.5 L 118.34375 34.5 L 118.34375 45.417969 L 2.273438 45.417969 Z M 2.273438 34.5 " fill-opacity="1" fill-rule="nonzero"/></g></g><g clip-path="url(#d3265d16a2)"><path fill="#eaa799" d="M 2.273438 34.5 L 118.34375 34.5 L 118.34375 45.417969 L 2.273438 45.417969 Z M 2.273438 34.5 " fill-opacity="1" fill-rule="nonzero"/></g><g clip-path="url(#97995e3347)"><g clip-path="url(#2df5fbe307)"><path fill="#eaa799" d="M 2.273438 34.5 L 118.34375 34.5 L 118.34375 45.417969 L 2.273438 45.417969 Z M 2.273438 34.5 " fill-opacity="1" fill-rule="nonzero"/></g></g><g clip-path="url(#06b2345da2)"><g clip-path="url(#0600e89942)"><path fill="#eaa799" d="M 2.273438 34.5 L 118.34375 34.5 L 118.34375 45.417969 L 2.273438 45.417969 Z M 2.273438 34.5 " fill-opacity="1" fill-rule="nonzero"/></g></g><g clip-path="url(#a81be7a698)"><g clip-path="url(#73cb52c8b2)"><path fill="#eaa799" d="M 2.273438 34.5 L 118.34375 34.5 L 118.34375 45.417969 L 2.273438 45.417969 Z M 2.273438 34.5 " fill-opacity="1" fill-rule="nonzero"/></g></g><g clip-path="url(#6935515c1c)"><g clip-path="url(#8fc81c5512)"><path fill="#eaa799" d="M 117.554688 2.628906 L 141.523438 2.628906 L 141.523438 28.941406 L 117.554688 28.941406 Z M 117.554688 2.628906 " fill-opacity="1" fill-rule="nonzero"/></g></g><g clip-path="url(#02a1b846d9)"><path fill="#eaa799" d="M 120.273438 34.511719 L 159.765625 34.511719 L 159.765625 45.40625 L 120.273438 45.40625 Z M 120.273438 34.511719 " fill-opacity="1" fill-rule="nonzero"/></g><g clip-path="url(#9e2b63f680)"><g clip-path="url(#7d02cc8eeb)"><path fill="#eaa799" d="M 120.273438 34.511719 L 159.765625 34.511719 L 159.765625 45.40625 L 120.273438 45.40625 Z M 120.273438 34.511719 " fill-opacity="1" fill-rule="nonzero"/></g></g><g clip-path="url(#0393a8a3c2)"><g clip-path="url(#28655d0370)"><path fill="#eaa799" d="M 120.273438 34.511719 L 159.765625 34.511719 L 159.765625 45.40625 L 120.273438 45.40625 Z M 120.273438 34.511719 " fill-opacity="1" fill-rule="nonzero"/></g></g><g clip-path="url(#7ba3e9a196)"><path fill="#eaa799" d="M 120.273438 34.511719 L 159.765625 34.511719 L 159.765625 45.40625 L 120.273438 45.40625 Z M 120.273438 34.511719 " fill-opacity="1" fill-rule="nonzero"/></g><g clip-path="url(#3562f5f7e2)"><g clip-path="url(#10ddf78a49)"><path fill="#eaa799" d="M 120.273438 34.511719 L 159.765625 34.511719 L 159.765625 45.40625 L 120.273438 45.40625 Z M 120.273438 34.511719 " fill-opacity="1" fill-rule="nonzero"/></g></g><g clip-path="url(#f4a50473ce)"><path fill="#eaa799" d="M 120.273438 34.511719 L 159.765625 34.511719 L 159.765625 45.40625 L 120.273438 45.40625 Z M 120.273438 34.511719 " fill-opacity="1" fill-rule="nonzero"/></g><g clip-path="url(#d79ed3e08e)"><g clip-path="url(#291dcee867)"><path fill="#eaa799" d="M 144.171875 2.667969 L 164.011719 2.667969 L 164.011719 28.941406 L 144.171875 28.941406 Z M 144.171875 2.667969 " fill-opacity="1" fill-rule="nonzero"/></g></g><g clip-path="url(#0d05e716ae)"><path fill="#eaa799" d="M 162.265625 35.667969 L 167.449219 35.667969 L 167.449219 44.253906 L 162.265625 44.253906 Z M 162.265625 35.667969 " fill-opacity="1" fill-rule="nonzero"/></g><g clip-path="url(#2a9670fade)"><path fill="#eaa799" d="M 165.140625 1.601562 L 211.089844 1.601562 L 211.089844 30.011719 L 165.140625 30.011719 Z M 165.140625 1.601562 " fill-opacity="1" fill-rule="nonzero"/></g><g clip-path="url(#fbb1b1ae33)"><g clip-path="url(#eae13e3925)"><path fill="#eaa799" d="M 165.140625 1.601562 L 211.089844 1.601562 L 211.089844 30.011719 L 165.140625 30.011719 Z M 165.140625 1.601562 " fill-opacity="1" fill-rule="nonzero"/></g></g><g clip-path="url(#c59fc74eb5)"><g clip-path="url(#73fc715338)"><path fill="#eaa799" d="M 214.035156 2.855469 L 232.058594 2.855469 L 232.058594 28.554688 L 214.035156 28.554688 Z M 214.035156 2.855469 " fill-opacity="1" fill-rule="nonzero"/></g></g><g clip-path="url(#2a109baf92)"><g clip-path="url(#46451a75e0)"><path fill="#eaa799" d="M 170.179688 34.5 L 232.246094 34.5 L 232.246094 45.417969 L 170.179688 45.417969 Z M 170.179688 34.5 " fill-opacity="1" fill-rule="nonzero"/></g></g><g clip-path="url(#452ecb286d)"><g clip-path="url(#b346098260)"><path fill="#eaa799" d="M 170.179688 34.5 L 232.246094 34.5 L 232.246094 45.417969 L 170.179688 45.417969 Z M 170.179688 34.5 " fill-opacity="1" fill-rule="nonzero"/></g></g><g clip-path="url(#ebbacdbb80)"><g clip-path="url(#0a23e705c1)"><path fill="#eaa799" d="M 170.179688 34.5 L 232.246094 34.5 L 232.246094 45.417969 L 170.179688 45.417969 Z M 170.179688 34.5 " fill-opacity="1" fill-rule="nonzero"/></g></g><g clip-path="url(#611d619c34)"><g clip-path="url(#7d49dbaffb)"><path fill="#eaa799" d="M 170.179688 34.5 L 232.246094 34.5 L 232.246094 45.417969 L 170.179688 45.417969 Z M 170.179688 34.5 " fill-opacity="1" fill-rule="nonzero"/></g></g><g clip-path="url(#4ed0bd45dc)"><g clip-path="url(#9df79a54d3)"><path fill="#eaa799" d="M 170.179688 34.5 L 232.246094 34.5 L 232.246094 45.417969 L 170.179688 45.417969 Z M 170.179688 34.5 " fill-opacity="1" fill-rule="nonzero"/></g></g><g clip-path="url(#22f59badff)"><g clip-path="url(#3e3c25e9e8)"><path fill="#eaa799" d="M 170.179688 34.5 L 232.246094 34.5 L 232.246094 45.417969 L 170.179688 45.417969 Z M 170.179688 34.5 " fill-opacity="1" fill-rule="nonzero"/></g></g><g clip-path="url(#1f9c2232a8)"><g clip-path="url(#61fd20960c)"><path fill="#eaa799" d="M 170.179688 34.5 L 232.246094 34.5 L 232.246094 45.417969 L 170.179688 45.417969 Z M 170.179688 34.5 " fill-opacity="1" fill-rule="nonzero"/></g></g><g clip-path="url(#6677e0c63f)"><path fill="#eaa799" d="M 170.179688 34.5 L 232.246094 34.5 L 232.246094 45.417969 L 170.179688 45.417969 Z M 170.179688 34.5 " fill-opacity="1" fill-rule="nonzero"/></g></svg>