<svg xmlns="http://www.w3.org/2000/svg" xmlns:xlink="http://www.w3.org/1999/xlink" width="2160" zoomAndPan="magnify" viewBox="0 0 1620 1079.999946" height="1440" preserveAspectRatio="xMidYMid meet" version="1.0"><defs><clipPath id="038ed1a62d"><path d="M 267.328125 474.046875 L 339.136719 474.046875 L 339.136719 492.644531 L 267.328125 492.644531 Z M 267.328125 492.644531 L 289.976562 492.644531 L 289.976562 526.886719 L 267.328125 526.886719 Z M 267.328125 526.886719 L 335.636719 526.886719 L 335.636719 545.304688 L 267.328125 545.304688 Z M 267.328125 545.304688 L 289.976562 545.304688 L 289.976562 598.144531 L 267.328125 598.144531 Z M 267.328125 545.304688 " clip-rule="nonzero"/></clipPath><clipPath id="524a6a92e0"><path d="M 338.210938 474 L 448 474 L 448 598.523438 L 338.210938 598.523438 Z M 338.210938 474 " clip-rule="nonzero"/></clipPath><clipPath id="91cf961432"><path d="M 408.167969 545.855469 L 398.40625 515.292969 C 396.007812 507.746094 393.988281 499.273438 392.148438 492.09375 L 391.777344 492.09375 C 389.9375 499.273438 388.097656 507.925781 385.886719 515.292969 L 376.304688 545.855469 Z M 372.636719 562.976562 L 361.957031 598.132812 L 338.578125 598.132812 L 378.347656 474.046875 L 407.257812 474.046875 L 447.578125 598.132812 L 423.277344 598.132812 L 412.035156 562.976562 Z M 372.636719 562.976562 " clip-rule="nonzero"/></clipPath><clipPath id="89de4a3042"><path d="M 454 472.046875 L 551 472.046875 L 551 600 L 454 600 Z M 454 472.046875 " clip-rule="nonzero"/></clipPath><clipPath id="d293c7e466"><path d="M 549.957031 594.453125 C 544.617188 597.035156 532.835938 599.976562 517.734375 599.976562 C 478.335938 599.976562 454.394531 575.304688 454.394531 537.566406 C 454.394531 496.695312 482.9375 472.203125 520.867188 472.203125 C 535.777344 472.203125 546.277344 475.15625 550.875 477.546875 L 546.085938 495.585938 C 540.195312 493.003906 531.90625 490.792969 521.785156 490.792969 C 496.554688 490.792969 478.335938 506.625 478.335938 536.453125 C 478.335938 563.703125 494.175781 581.003906 521.605469 581.003906 C 530.625 581.003906 540.195312 579.164062 546.277344 576.585938 Z M 549.957031 594.453125 " clip-rule="nonzero"/></clipPath><clipPath id="0b92daf1f4"><path d="M 569.277344 474.046875 L 641.457031 474.046875 L 641.457031 492.648438 L 569.277344 492.648438 Z M 569.277344 492.648438 L 591.929688 492.648438 L 591.929688 524.679688 L 569.277344 524.679688 Z M 569.277344 524.679688 L 638.6875 524.679688 L 638.6875 543.089844 L 569.277344 543.089844 Z M 569.277344 543.089844 L 591.929688 543.089844 L 591.929688 579.546875 L 569.277344 579.546875 Z M 569.277344 579.546875 L 644.21875 579.546875 L 644.21875 598.148438 L 569.277344 598.148438 Z M 569.277344 579.546875 " clip-rule="nonzero"/></clipPath><clipPath id="c3d0e8f4d9"><path d="M 702.207031 473.125 L 808.667969 473.125 L 808.667969 599.472656 L 702.207031 599.472656 Z M 702.207031 473.125 " clip-rule="nonzero"/></clipPath><clipPath id="c20e845f49"><path d="M 724.855469 581.015625 C 727.984375 581.566406 732.777344 581.566406 737.375 581.566406 C 766.835938 581.746094 784.324219 565.363281 784.324219 533.875 C 784.503906 506.625 768.675781 490.796875 740.324219 490.796875 C 733.144531 490.796875 728.175781 491.34375 724.855469 492.085938 Z M 702.207031 475.886719 C 712.335938 474.226562 724.855469 473.125 738.296875 473.125 C 761.496094 473.125 777.324219 477.914062 788.746094 487.484375 C 800.894531 497.246094 808.265625 512.15625 808.265625 533.144531 C 808.265625 555.425781 800.714844 571.804688 788.933594 582.484375 C 776.585938 593.726562 756.886719 599.425781 732.765625 599.425781 C 719.695312 599.425781 709.746094 598.683594 702.207031 597.765625 Z M 702.207031 475.886719 " clip-rule="nonzero"/></clipPath><clipPath id="c057920d05"><path d="M 266 632.164062 L 295.640625 632.164062 L 295.640625 674.476562 L 266 674.476562 Z M 266 632.164062 " clip-rule="nonzero"/></clipPath><clipPath id="aecb442f24"><path d="M 273.550781 651.667969 L 278.070312 651.667969 C 283.210938 651.667969 286.371094 648.9375 286.371094 644.800781 C 286.371094 640.277344 283.210938 638.109375 278.261719 638.109375 C 275.851562 638.109375 274.300781 638.300781 273.5625 638.480469 Z M 266 633.277344 C 268.910156 632.71875 273.121094 632.347656 277.523438 632.347656 C 283.53125 632.347656 287.550781 633.339844 290.402344 635.6875 C 292.691406 637.609375 293.992188 640.519531 293.992188 644.109375 C 293.992188 649.5 290.339844 653.148438 286.371094 654.507812 L 286.371094 654.699219 C 289.402344 655.808594 291.203125 658.71875 292.191406 662.75 C 293.550781 667.949219 294.671875 672.777344 295.472656 674.390625 L 287.671875 674.390625 C 287.050781 673.148438 286 669.738281 284.882812 664.539062 C 283.640625 659.089844 281.722656 657.359375 277.390625 657.230469 L 273.550781 657.230469 L 273.550781 674.398438 L 266 674.398438 Z M 266 633.277344 " clip-rule="nonzero"/></clipPath><clipPath id="09dc198740"><path d="M 301.230469 632.660156 L 325.511719 632.660156 L 325.511719 638.910156 L 301.230469 638.910156 Z M 301.230469 638.910156 L 308.851562 638.910156 L 308.851562 649.6875 L 301.230469 649.6875 Z M 301.230469 649.6875 L 324.582031 649.6875 L 324.582031 655.878906 L 301.230469 655.878906 Z M 301.230469 655.878906 L 308.851562 655.878906 L 308.851562 668.140625 L 301.230469 668.140625 Z M 301.230469 668.140625 L 326.429688 668.140625 L 326.429688 674.390625 L 301.230469 674.390625 Z M 301.230469 668.140625 " clip-rule="nonzero"/></clipPath><clipPath id="75c3c4ae9c"><path d="M 330 632.578125 L 350.394531 632.578125 L 350.394531 675.097656 L 330 675.097656 Z M 330 632.578125 " clip-rule="nonzero"/></clipPath><clipPath id="9e6b568a3f"><path d="M 342.652344 632.660156 L 350.269531 632.660156 L 350.269531 659.71875 C 350.269531 671.238281 344.703125 675.078125 336.460938 675.078125 C 334.292969 675.078125 331.691406 674.707031 330.023438 674.089844 L 330.953125 667.957031 C 332.191406 668.390625 333.863281 668.699219 335.660156 668.699219 C 339.992188 668.699219 342.660156 666.71875 342.660156 659.480469 Z M 342.652344 632.660156 " clip-rule="nonzero"/></clipPath><clipPath id="03dc40302b"><path d="M 358.484375 632.578125 L 391.253906 632.578125 L 391.253906 675.097656 L 358.484375 675.097656 Z M 358.484375 632.578125 " clip-rule="nonzero"/></clipPath><clipPath id="115b7c0b62"><path d="M 366.179688 632.660156 L 366.179688 657 C 366.179688 665.167969 369.589844 668.949219 374.722656 668.949219 C 380.230469 668.949219 383.519531 665.167969 383.519531 657 L 383.519531 632.660156 L 391.140625 632.660156 L 391.140625 656.5 C 391.140625 669.378906 384.523438 675.078125 374.480469 675.078125 C 364.820312 675.078125 358.570312 669.6875 358.570312 656.558594 L 358.570312 632.660156 Z M 366.179688 632.660156 " clip-rule="nonzero"/></clipPath><clipPath id="a324e850ec"><path d="M 395.816406 632.578125 L 432.738281 632.578125 L 432.738281 674.476562 L 395.816406 674.476562 Z M 395.816406 632.578125 " clip-rule="nonzero"/></clipPath><clipPath id="377e3164b0"><path d="M 409.402344 674.398438 L 395.902344 632.660156 L 404.203125 632.660156 L 409.902344 651.667969 C 411.511719 656.929688 412.929688 661.828125 413.992188 666.839844 L 414.113281 666.839844 C 415.222656 661.890625 416.769531 656.808594 418.382812 651.730469 L 424.453125 632.660156 L 432.5625 632.660156 L 418.132812 674.398438 Z M 409.402344 674.398438 " clip-rule="nonzero"/></clipPath><clipPath id="14f0b38234"><path d="M 437.082031 632.660156 L 461.351562 632.660156 L 461.351562 638.910156 L 437.082031 638.910156 Z M 437.082031 638.910156 L 444.703125 638.910156 L 444.703125 649.6875 L 437.082031 649.6875 Z M 437.082031 649.6875 L 460.429688 649.6875 L 460.429688 655.878906 L 437.082031 655.878906 Z M 437.082031 655.878906 L 444.703125 655.878906 L 444.703125 668.140625 L 437.082031 668.140625 Z M 437.082031 668.140625 L 462.28125 668.140625 L 462.28125 674.390625 L 437.082031 674.390625 Z M 437.082031 668.140625 " clip-rule="nonzero"/></clipPath><clipPath id="8c9bd30a1c"><path d="M 468.828125 632.578125 L 502.21875 632.578125 L 502.21875 674.476562 L 468.828125 674.476562 Z M 468.828125 632.578125 " clip-rule="nonzero"/></clipPath><clipPath id="49ff3ec52b"><path d="M 468.910156 674.398438 L 468.910156 632.660156 L 477.640625 632.660156 L 488.421875 650.550781 C 491.140625 655.1875 493.621094 660.019531 495.542969 664.539062 L 495.660156 664.480469 C 495.101562 658.96875 494.980469 653.578125 494.980469 647.199219 L 494.980469 632.660156 L 502.042969 632.660156 L 502.042969 674.398438 L 494.113281 674.398438 L 483.210938 656.007812 C 480.550781 651.429688 477.820312 646.347656 475.78125 641.640625 L 475.53125 641.707031 C 475.839844 647.089844 475.960938 652.597656 475.960938 659.480469 L 475.960938 674.398438 Z M 468.910156 674.398438 " clip-rule="nonzero"/></clipPath><clipPath id="ddc9bf2210"><path d="M 510.820312 632.660156 L 535.101562 632.660156 L 535.101562 638.910156 L 510.820312 638.910156 Z M 510.820312 638.910156 L 518.441406 638.910156 L 518.441406 649.6875 L 510.820312 649.6875 Z M 510.820312 649.6875 L 534.171875 649.6875 L 534.171875 655.878906 L 510.820312 655.878906 Z M 510.820312 655.878906 L 518.441406 655.878906 L 518.441406 668.140625 L 510.820312 668.140625 Z M 510.820312 668.140625 L 536.019531 668.140625 L 536.019531 674.390625 L 510.820312 674.390625 Z M 510.820312 668.140625 " clip-rule="nonzero"/></clipPath><clipPath id="d06c6e8ced"><path d="M 540.796875 632 L 568 632 L 568 675.097656 L 540.796875 675.097656 Z M 540.796875 632 " clip-rule="nonzero"/></clipPath><clipPath id="2375a1e930"><path d="M 542.613281 666.097656 C 545.019531 667.519531 548.800781 668.757812 552.703125 668.757812 C 557.53125 668.757812 560.25 666.46875 560.25 663.058594 C 560.25 659.898438 558.140625 658.039062 552.882812 656.128906 C 545.953125 653.707031 541.550781 650 541.550781 644.058594 C 541.550781 637.1875 547.25 632.050781 556.351562 632.050781 C 560.871094 632.050781 564.152344 633.039062 566.320312 634.089844 L 564.53125 640.277344 C 562.980469 639.480469 560.070312 638.300781 556.171875 638.300781 C 551.339844 638.300781 549.300781 640.839844 549.300781 643.320312 C 549.300781 646.539062 551.710938 648.019531 557.292969 650.128906 C 564.53125 652.910156 568 656.558594 568 662.507812 C 568 669.257812 562.921875 675.019531 552.210938 675.019531 C 547.75 675.019531 543.171875 673.777344 540.882812 672.417969 Z M 542.613281 666.097656 " clip-rule="nonzero"/></clipPath><clipPath id="a122a28a6a"><path d="M 572.53125 632 L 605.09375 632 L 605.09375 675.097656 L 572.53125 675.097656 Z M 572.53125 632 " clip-rule="nonzero"/></clipPath><clipPath id="bf100d431c"><path d="M 604.761719 673.160156 C 602.972656 674.027344 599 675.019531 593.921875 675.019531 C 580.671875 675.019531 572.621094 666.71875 572.621094 654.027344 C 572.621094 640.277344 582.222656 632.050781 594.972656 632.050781 C 599.992188 632.050781 603.519531 633.039062 605.0625 633.839844 L 603.453125 639.910156 C 601.472656 639.039062 598.679688 638.300781 595.28125 638.300781 C 586.800781 638.300781 580.671875 643.617188 580.671875 653.660156 C 580.671875 662.820312 585.992188 668.640625 595.222656 668.640625 C 598.25 668.640625 601.472656 668.019531 603.519531 667.148438 Z M 604.761719 673.160156 " clip-rule="nonzero"/></clipPath><clipPath id="12566880a3"><path d="M 611.261719 632.660156 L 618.882812 632.660156 L 618.882812 674.398438 L 611.261719 674.398438 Z M 611.261719 632.660156 " clip-rule="nonzero"/></clipPath><clipPath id="60feed3718"><path d="M 626.457031 632.578125 L 671.257812 632.578125 L 671.257812 674.476562 L 626.457031 674.476562 Z M 626.457031 632.578125 " clip-rule="nonzero"/></clipPath><clipPath id="22086f3153"><path d="M 662.851562 657.367188 C 662.601562 651.980469 662.292969 645.539062 662.359375 639.847656 L 662.171875 639.847656 C 660.8125 644.929688 659.082031 650.558594 657.222656 655.820312 L 651.089844 673.898438 L 645.269531 673.898438 L 639.703125 656.070312 C 638.089844 650.738281 636.601562 645.050781 635.492188 639.847656 L 635.371094 639.847656 C 635.191406 645.300781 634.941406 651.917969 634.632812 657.617188 L 633.703125 674.398438 L 626.582031 674.398438 L 629.371094 632.667969 L 639.402344 632.667969 L 644.851562 649.449219 C 646.339844 654.339844 647.640625 659.300781 648.691406 663.9375 L 648.871094 663.9375 C 649.980469 659.417969 651.410156 654.277344 653.019531 649.390625 L 658.78125 632.667969 L 668.691406 632.667969 L 671.113281 674.398438 L 663.679688 674.398438 Z M 662.851562 657.367188 " clip-rule="nonzero"/></clipPath><clipPath id="550ccd7f97"><path d="M 678.8125 632.660156 L 703.082031 632.660156 L 703.082031 638.910156 L 678.8125 638.910156 Z M 678.8125 638.910156 L 686.429688 638.910156 L 686.429688 649.6875 L 678.8125 649.6875 Z M 678.8125 649.6875 L 702.160156 649.6875 L 702.160156 655.878906 L 678.8125 655.878906 Z M 678.8125 655.878906 L 686.429688 655.878906 L 686.429688 668.140625 L 678.8125 668.140625 Z M 678.8125 668.140625 L 704.011719 668.140625 L 704.011719 674.390625 L 678.8125 674.390625 Z M 678.8125 668.140625 " clip-rule="nonzero"/></clipPath><clipPath id="ac00d2e4d7"><path d="M 710.460938 632.578125 L 743.851562 632.578125 L 743.851562 674.476562 L 710.460938 674.476562 Z M 710.460938 632.578125 " clip-rule="nonzero"/></clipPath><clipPath id="896f11995f"><path d="M 710.652344 674.398438 L 710.652344 632.660156 L 719.382812 632.660156 L 730.160156 650.550781 C 732.882812 655.1875 735.359375 660.019531 737.28125 664.539062 L 737.402344 664.480469 C 736.839844 658.96875 736.722656 653.578125 736.722656 647.199219 L 736.722656 632.660156 L 743.78125 632.660156 L 743.78125 674.398438 L 735.859375 674.398438 L 724.960938 656.007812 C 722.300781 651.429688 719.570312 646.347656 717.53125 641.640625 L 717.28125 641.707031 C 717.589844 647.089844 717.722656 652.597656 717.722656 659.480469 L 717.722656 674.398438 Z M 710.652344 674.398438 " clip-rule="nonzero"/></clipPath><clipPath id="f5ac865349"><path d="M 748.621094 632.578125 L 780.355469 632.578125 L 780.355469 674.476562 L 748.621094 674.476562 Z M 748.621094 632.578125 " clip-rule="nonzero"/></clipPath><clipPath id="ea0d7d9606"><path d="M 760.5625 639.039062 L 748.671875 639.039062 L 748.671875 632.660156 L 780.179688 632.660156 L 780.179688 639.039062 L 768.171875 639.039062 L 768.171875 674.390625 L 760.550781 674.390625 Z M 760.5625 639.039062 " clip-rule="nonzero"/></clipPath><clipPath id="559a13744e"><path d="M 781 631.957031 L 820.386719 631.957031 L 820.386719 675.097656 L 781 675.097656 Z M 781 631.957031 " clip-rule="nonzero"/></clipPath><clipPath id="3ea2ddf87e"><path d="M 800.8125 668.949219 C 808.179688 668.949219 812.332031 662.140625 812.332031 653.410156 C 812.332031 645.550781 808.429688 638.109375 800.8125 638.109375 C 793.191406 638.109375 789.230469 645.359375 789.230469 653.648438 C 789.230469 661.9375 793.441406 668.9375 800.75 668.9375 Z M 800.441406 675.078125 C 788.609375 675.078125 781.179688 666.039062 781.179688 653.839844 C 781.179688 641.078125 789.292969 631.980469 801.0625 631.980469 C 813.203125 631.980469 820.382812 641.207031 820.382812 653.097656 C 820.382812 667.089844 811.902344 675.078125 800.5 675.078125 Z M 800.441406 675.078125 " clip-rule="nonzero"/></clipPath><clipPath id="640e941ba3"><path d="M 821.53125 472.019531 L 938.078125 472.019531 L 938.078125 600 L 821.53125 600 Z M 821.53125 472.019531 " clip-rule="nonzero"/></clipPath><clipPath id="e2b9f9ae4b"><path d="M 879.902344 581.941406 C 901.8125 581.941406 914.152344 561.691406 914.152344 535.730469 C 914.152344 512.351562 902.550781 490.25 879.902344 490.25 C 857.25 490.25 845.460938 511.789062 845.460938 536.460938 C 845.460938 561.132812 857.980469 581.941406 879.710938 581.941406 Z M 878.800781 600.171875 C 843.628906 600.160156 821.53125 573.28125 821.53125 537.011719 C 821.53125 499.089844 845.652344 472.019531 880.628906 472.019531 C 916.71875 472.019531 938.070312 499.449219 938.070312 534.800781 C 938.070312 576.410156 912.851562 600.160156 878.96875 600.160156 Z M 878.800781 600.171875 " clip-rule="nonzero"/></clipPath><clipPath id="b047d3b1e1"><path d="M 839.75 632.664062 L 863.898438 632.664062 L 863.898438 638.914062 L 839.75 638.914062 Z M 839.75 638.914062 L 847.371094 638.914062 L 847.371094 650.433594 L 839.75 650.433594 Z M 839.75 650.433594 L 862.71875 650.433594 L 862.71875 656.625 L 839.75 656.625 Z M 839.75 656.625 L 847.371094 656.625 L 847.371094 674.394531 L 839.75 674.394531 Z M 839.75 656.625 " clip-rule="nonzero"/></clipPath><clipPath id="e762d061fc"><path d="M 863.71875 632.628906 L 900.546875 632.628906 L 900.546875 674.425781 L 863.71875 674.425781 Z M 863.71875 632.628906 " clip-rule="nonzero"/></clipPath><clipPath id="6bf93a5c3c"><path d="M 887.128906 656.8125 L 883.851562 646.535156 C 883.050781 643.996094 882.359375 641.144531 881.738281 638.734375 L 881.621094 638.734375 L 879.640625 646.535156 L 876.421875 656.8125 Z M 875.179688 662.5625 L 871.589844 674.394531 L 863.71875 674.394531 L 877.101562 632.664062 L 886.820312 632.664062 L 900.378906 674.394531 L 892.210938 674.394531 L 888.429688 662.5625 Z M 875.179688 662.5625 " clip-rule="nonzero"/></clipPath><clipPath id="8c4c303176"><path d="M 902.617188 632.011719 L 935.308594 632.011719 L 935.308594 675.046875 L 902.617188 675.046875 Z M 902.617188 632.011719 " clip-rule="nonzero"/></clipPath><clipPath id="ec7b5ceb5f"><path d="M 934.820312 673.152344 C 933.03125 674.023438 929.058594 675.015625 923.980469 675.015625 C 910.730469 675.015625 902.679688 666.714844 902.679688 654.023438 C 902.679688 640.273438 912.28125 632.042969 925.03125 632.042969 C 930.039062 632.042969 933.582031 633.035156 935.121094 633.835938 L 933.511719 639.902344 C 931.53125 639.035156 928.738281 638.292969 925.339844 638.292969 C 916.859375 638.292969 910.730469 643.613281 910.730469 653.652344 C 910.730469 662.8125 916.058594 668.632812 925.28125 668.632812 C 928.308594 668.632812 931.53125 668.015625 933.582031 667.144531 Z M 934.820312 673.152344 " clip-rule="nonzero"/></clipPath><clipPath id="72beff7d67"><path d="M 941.308594 632.664062 L 948.929688 632.664062 L 948.929688 674.394531 L 941.308594 674.394531 Z M 941.308594 632.664062 " clip-rule="nonzero"/></clipPath><clipPath id="6a24e38757"><path d="M 954.554688 632.628906 L 991.382812 632.628906 L 991.382812 674.425781 L 954.554688 674.425781 Z M 954.554688 632.628906 " clip-rule="nonzero"/></clipPath><clipPath id="89272d7131"><path d="M 977.96875 656.8125 L 974.691406 646.535156 C 973.890625 643.996094 973.199219 641.144531 972.582031 638.734375 L 972.460938 638.734375 L 970.480469 646.535156 L 967.261719 656.8125 Z M 966.019531 662.574219 L 962.429688 674.402344 L 954.570312 674.402344 L 967.941406 632.664062 L 977.660156 632.664062 L 991.21875 674.394531 L 983.050781 674.394531 L 979.269531 662.5625 Z M 966.019531 662.574219 " clip-rule="nonzero"/></clipPath><clipPath id="25e265d61f"><path d="M 997.039062 632.664062 L 1004.660156 632.664062 L 1004.660156 668.015625 L 997.039062 668.015625 Z M 997.039062 668.015625 L 1021.808594 668.015625 L 1021.808594 674.394531 L 997.039062 674.394531 Z M 997.039062 668.015625 " clip-rule="nonzero"/></clipPath><clipPath id="1e5feaf94f"><path d="M 950.945312 472.207031 L 1047.800781 472.207031 L 1047.800781 600 L 950.945312 600 Z M 950.945312 472.207031 " clip-rule="nonzero"/></clipPath><clipPath id="11d7297815"><path d="M 1046.507812 594.457031 C 1041.167969 597.035156 1029.386719 599.976562 1014.285156 599.976562 C 974.875 599.984375 950.945312 575.316406 950.945312 537.566406 C 950.945312 496.695312 979.488281 472.207031 1017.417969 472.207031 C 1032.328125 472.207031 1042.816406 475.15625 1047.425781 477.546875 L 1042.636719 495.585938 C 1036.746094 493.003906 1028.457031 490.804688 1018.335938 490.804688 C 993.117188 490.804688 974.886719 506.636719 974.886719 536.464844 C 974.886719 563.714844 990.726562 581.015625 1018.15625 581.015625 C 1027.175781 581.015625 1036.746094 579.175781 1042.828125 576.59375 Z M 1046.507812 594.457031 " clip-rule="nonzero"/></clipPath><clipPath id="ef75402048"><path d="M 1038.921875 632.660156 L 1063.203125 632.660156 L 1063.203125 638.910156 L 1038.921875 638.910156 Z M 1038.921875 638.910156 L 1046.542969 638.910156 L 1046.542969 649.691406 L 1038.921875 649.691406 Z M 1038.921875 649.691406 L 1062.261719 649.691406 L 1062.261719 655.878906 L 1038.921875 655.878906 Z M 1038.921875 655.878906 L 1046.542969 655.878906 L 1046.542969 668.140625 L 1038.921875 668.140625 Z M 1038.921875 668.140625 L 1064.121094 668.140625 L 1064.121094 674.390625 L 1038.921875 674.390625 Z M 1038.921875 668.140625 " clip-rule="nonzero"/></clipPath><clipPath id="3296508ca4"><path d="M 1057.914062 474.039062 L 1151.636719 474.039062 L 1151.636719 493.011719 L 1057.914062 493.011719 Z M 1093.265625 493.011719 L 1115.914062 493.011719 L 1115.914062 598.140625 L 1093.265625 598.140625 Z M 1093.265625 493.011719 " clip-rule="nonzero"/></clipPath><clipPath id="0f4d0d3f97"><path d="M 1154.363281 472 L 1271.460938 472 L 1271.460938 600.308594 L 1154.363281 600.308594 Z M 1154.363281 472 " clip-rule="nonzero"/></clipPath><clipPath id="fc975574d6"><path d="M 1212.953125 581.941406 C 1234.863281 581.941406 1247.203125 561.691406 1247.203125 535.730469 C 1247.203125 512.351562 1235.605469 490.25 1212.953125 490.25 C 1190.304688 490.25 1178.523438 511.789062 1178.523438 536.460938 C 1178.523438 561.128906 1191.042969 581.941406 1212.765625 581.941406 Z M 1211.855469 600.171875 C 1176.683594 600.171875 1154.59375 573.289062 1154.59375 537.019531 C 1154.59375 499.089844 1178.714844 472.019531 1213.695312 472.019531 C 1249.785156 472.019531 1271.144531 499.449219 1271.144531 534.800781 C 1271.144531 576.410156 1245.925781 600.160156 1212.042969 600.160156 Z M 1211.855469 600.171875 " clip-rule="nonzero"/></clipPath><clipPath id="11bb952ae4"><path d="M 1290.640625 473.125 L 1378.28125 473.125 L 1378.28125 598.421875 L 1290.640625 598.421875 Z M 1290.640625 473.125 " clip-rule="nonzero"/></clipPath><clipPath id="73dcfa2748"><path d="M 1313.097656 530.566406 L 1326.550781 530.566406 C 1341.828125 530.566406 1351.21875 522.464844 1351.21875 510.125 C 1351.21875 496.6875 1341.828125 490.234375 1327.097656 490.234375 C 1319.917969 490.234375 1315.320312 490.785156 1313.109375 491.347656 Z M 1290.640625 475.886719 C 1299.289062 474.234375 1311.820312 473.125 1324.878906 473.125 C 1342.738281 473.125 1354.710938 476.078125 1363.179688 483.066406 C 1369.988281 488.777344 1373.859375 497.425781 1373.859375 508.105469 C 1373.859375 524.125 1363 534.984375 1351.210938 539.035156 L 1351.210938 539.585938 C 1360.238281 542.90625 1365.578125 551.554688 1368.519531 563.527344 C 1372.570312 578.996094 1375.878906 593.355469 1378.28125 598.136719 L 1355.078125 598.136719 C 1353.238281 594.457031 1350.109375 584.324219 1346.789062 568.867188 C 1343.109375 552.664062 1337.398438 547.507812 1324.507812 547.136719 L 1313.097656 547.136719 L 1313.097656 598.136719 L 1290.640625 598.136719 Z M 1290.640625 475.886719 " clip-rule="nonzero"/></clipPath><clipPath id="887d5ab558"><path d="M 1163 632.164062 L 1192.527344 632.164062 L 1192.527344 674.476562 L 1163 674.476562 Z M 1163 632.164062 " clip-rule="nonzero"/></clipPath><clipPath id="e4e9c16db0"><path d="M 1170.5625 651.667969 L 1175.085938 651.667969 C 1180.222656 651.667969 1183.382812 648.9375 1183.382812 644.796875 C 1183.382812 640.277344 1180.222656 638.109375 1175.273438 638.109375 C 1172.863281 638.109375 1171.3125 638.300781 1170.574219 638.480469 Z M 1163.015625 633.277344 C 1165.925781 632.71875 1170.132812 632.347656 1174.535156 632.347656 C 1180.542969 632.347656 1184.5625 633.339844 1187.414062 635.6875 C 1189.703125 637.609375 1191.003906 640.519531 1191.003906 644.109375 C 1191.003906 649.5 1187.355469 653.148438 1183.382812 654.507812 L 1183.382812 654.699219 C 1186.425781 655.808594 1188.214844 658.71875 1189.203125 662.75 C 1190.5625 667.949219 1191.683594 672.777344 1192.484375 674.390625 L 1184.683594 674.390625 C 1184.0625 673.148438 1183.015625 669.738281 1181.894531 664.539062 C 1180.65625 659.089844 1178.734375 657.359375 1174.40625 657.230469 L 1170.5625 657.230469 L 1170.5625 674.398438 L 1163.015625 674.398438 Z M 1163.015625 633.277344 " clip-rule="nonzero"/></clipPath><clipPath id="501539e576"><path d="M 1196.882812 632.164062 L 1225 632.164062 L 1225 674.476562 L 1196.882812 674.476562 Z M 1196.882812 632.164062 " clip-rule="nonzero"/></clipPath><clipPath id="1b177e4d53"><path d="M 1204.554688 651.667969 L 1209.074219 651.667969 C 1214.214844 651.667969 1217.375 648.9375 1217.375 644.796875 C 1217.375 640.277344 1214.214844 638.109375 1209.265625 638.109375 C 1206.855469 638.109375 1205.304688 638.300781 1204.5625 638.480469 Z M 1197.003906 633.277344 C 1199.914062 632.71875 1204.125 632.347656 1208.523438 632.347656 C 1214.535156 632.347656 1218.554688 633.339844 1221.402344 635.6875 C 1223.695312 637.609375 1224.996094 640.519531 1224.996094 644.109375 C 1224.996094 649.5 1223.503906 653.097656 1218.996094 656.578125 C 1215.835938 659.007812 1204.554688 658.160156 1204.554688 658.160156 L 1204.554688 674.398438 L 1196.996094 674.398438 Z M 1197.003906 633.277344 " clip-rule="nonzero"/></clipPath><clipPath id="9c05ffcbe4"><path d="M 1274.660156 632.164062 L 1304.320312 632.164062 L 1304.320312 674.476562 L 1274.660156 674.476562 Z M 1274.660156 632.164062 " clip-rule="nonzero"/></clipPath><clipPath id="38f759d216"><path d="M 1282.324219 651.667969 L 1286.84375 651.667969 C 1291.984375 651.667969 1295.144531 648.9375 1295.144531 644.796875 C 1295.144531 640.277344 1291.984375 638.109375 1287.035156 638.109375 C 1284.625 638.109375 1283.074219 638.300781 1282.335938 638.480469 Z M 1274.765625 633.277344 C 1277.675781 632.71875 1281.882812 632.347656 1286.285156 632.347656 C 1292.292969 632.347656 1296.3125 633.339844 1299.164062 635.6875 C 1301.453125 637.609375 1302.753906 640.519531 1302.753906 644.109375 C 1302.753906 649.5 1299.105469 653.148438 1295.132812 654.507812 L 1295.132812 654.699219 C 1298.175781 655.808594 1299.964844 658.71875 1300.953125 662.75 C 1302.3125 667.949219 1303.433594 672.777344 1304.234375 674.390625 L 1296.433594 674.390625 C 1295.8125 673.148438 1294.765625 669.738281 1293.652344 664.539062 C 1292.414062 659.089844 1290.492188 657.359375 1286.164062 657.230469 L 1282.324219 657.230469 L 1282.324219 674.398438 L 1274.765625 674.398438 Z M 1274.765625 633.277344 " clip-rule="nonzero"/></clipPath><clipPath id="3ff9c47a5a"><path d="M 1115.371094 631.957031 L 1154.777344 631.957031 L 1154.777344 675.097656 L 1115.371094 675.097656 Z M 1115.371094 631.957031 " clip-rule="nonzero"/></clipPath><clipPath id="803517418d"><path d="M 1135.015625 668.949219 C 1142.382812 668.949219 1146.535156 662.140625 1146.535156 653.410156 C 1146.535156 645.546875 1142.632812 638.109375 1135.015625 638.109375 C 1127.394531 638.109375 1123.433594 645.359375 1123.433594 653.648438 C 1123.433594 661.9375 1127.644531 668.9375 1134.953125 668.9375 Z M 1134.644531 675.078125 C 1122.816406 675.078125 1115.382812 666.039062 1115.382812 653.839844 C 1115.382812 641.078125 1123.503906 631.980469 1135.265625 631.980469 C 1147.40625 631.980469 1154.585938 641.207031 1154.585938 653.097656 C 1154.585938 667.089844 1146.105469 675.078125 1134.703125 675.078125 Z M 1134.644531 675.078125 " clip-rule="nonzero"/></clipPath><clipPath id="8aa8c89481"><path d="M 1229.238281 631.957031 L 1268.644531 631.957031 L 1268.644531 675.097656 L 1229.238281 675.097656 Z M 1229.238281 631.957031 " clip-rule="nonzero"/></clipPath><clipPath id="aaf9e2b1d8"><path d="M 1249.054688 668.949219 C 1256.425781 668.949219 1260.574219 662.140625 1260.574219 653.410156 C 1260.574219 645.546875 1256.675781 638.109375 1249.054688 638.109375 C 1241.433594 638.109375 1237.472656 645.359375 1237.472656 653.648438 C 1237.472656 661.9375 1241.683594 668.9375 1248.996094 668.9375 Z M 1248.683594 675.078125 C 1236.855469 675.078125 1229.425781 666.039062 1229.425781 653.839844 C 1229.425781 641.078125 1237.535156 631.980469 1249.304688 631.980469 C 1261.445312 631.980469 1268.625 641.207031 1268.625 653.097656 C 1268.625 667.089844 1260.144531 675.078125 1248.746094 675.078125 Z M 1248.683594 675.078125 " clip-rule="nonzero"/></clipPath><clipPath id="f569a3bd65"><path d="M 1082.390625 632 L 1114.957031 632 L 1114.957031 675.097656 L 1082.390625 675.097656 Z M 1082.390625 632 " clip-rule="nonzero"/></clipPath><clipPath id="5129757063"><path d="M 1114.554688 673.160156 C 1112.765625 674.027344 1108.792969 675.019531 1103.722656 675.019531 C 1090.464844 675.007812 1082.414062 666.71875 1082.414062 654.019531 C 1082.414062 640.277344 1092.015625 632.039062 1104.765625 632.039062 C 1109.785156 632.039062 1113.316406 633.027344 1114.855469 633.828125 L 1113.246094 639.898438 C 1111.265625 639.027344 1108.476562 638.289062 1105.074219 638.289062 C 1096.59375 638.289062 1090.464844 643.609375 1090.464844 653.648438 C 1090.464844 662.808594 1095.792969 668.628906 1105.015625 668.628906 C 1108.042969 668.628906 1111.273438 668.007812 1113.316406 667.140625 Z M 1114.554688 673.160156 " clip-rule="nonzero"/></clipPath><clipPath id="c5c6274d77"><path d="M 1306.808594 632.578125 L 1343.730469 632.578125 L 1343.730469 674.476562 L 1306.808594 674.476562 Z M 1306.808594 632.578125 " clip-rule="nonzero"/></clipPath><clipPath id="b59e940358"><path d="M 1330.273438 656.808594 L 1326.992188 646.527344 C 1326.183594 643.988281 1325.503906 641.140625 1324.882812 638.730469 L 1324.765625 638.730469 L 1322.785156 646.527344 L 1319.5625 656.808594 Z M 1318.324219 662.570312 L 1314.734375 674.398438 L 1306.875 674.398438 L 1320.242188 632.660156 L 1329.964844 632.660156 L 1343.523438 674.390625 L 1335.355469 674.390625 L 1331.574219 662.558594 Z M 1318.324219 662.570312 " clip-rule="nonzero"/></clipPath><clipPath id="05f9ad6ab1"><path d="M 1349.355469 632.660156 L 1356.972656 632.660156 L 1356.972656 668.019531 L 1349.355469 668.019531 Z M 1349.355469 668.019531 L 1374.125 668.019531 L 1374.125 674.398438 L 1349.355469 674.398438 Z M 1349.355469 668.019531 " clip-rule="nonzero"/></clipPath></defs><g clip-path="url(#038ed1a62d)"><path fill="#ffffff" d="M 262.328125 467.203125 L 555.636719 467.203125 L 555.636719 604.980469 L 262.328125 604.980469 Z M 262.328125 467.203125 " fill-opacity="1" fill-rule="nonzero"/></g><g clip-path="url(#524a6a92e0)"><g clip-path="url(#91cf961432)"><path fill="#ffffff" d="M 262.328125 467.203125 L 555.636719 467.203125 L 555.636719 604.980469 L 262.328125 604.980469 Z M 262.328125 467.203125 " fill-opacity="1" fill-rule="nonzero"/></g></g><g clip-path="url(#89de4a3042)"><g clip-path="url(#d293c7e466)"><path fill="#ffffff" d="M 262.328125 467.203125 L 555.636719 467.203125 L 555.636719 604.980469 L 262.328125 604.980469 Z M 262.328125 467.203125 " fill-opacity="1" fill-rule="nonzero"/></g></g><g clip-path="url(#0b92daf1f4)"><path fill="#ffffff" d="M 569.277344 474.046875 L 644.214844 474.046875 L 644.214844 598.160156 L 569.277344 598.160156 Z M 569.277344 474.046875 " fill-opacity="1" fill-rule="nonzero"/></g><g clip-path="url(#c3d0e8f4d9)"><g clip-path="url(#c20e845f49)"><path fill="#ffffff" d="M 702.207031 473.125 L 808.253906 473.125 L 808.253906 599.472656 L 702.207031 599.472656 Z M 702.207031 473.125 " fill-opacity="1" fill-rule="nonzero"/></g></g><g clip-path="url(#c057920d05)"><g clip-path="url(#aecb442f24)"><path fill="#ffffff" d="M 261 626.980469 L 825.363281 626.980469 L 825.363281 680.074219 L 261 680.074219 Z M 261 626.980469 " fill-opacity="1" fill-rule="nonzero"/></g></g><g clip-path="url(#09dc198740)"><path fill="#ffffff" d="M 261 626.980469 L 825.363281 626.980469 L 825.363281 680.074219 L 261 680.074219 Z M 261 626.980469 " fill-opacity="1" fill-rule="nonzero"/></g><g clip-path="url(#75c3c4ae9c)"><g clip-path="url(#9e6b568a3f)"><path fill="#ffffff" d="M 261 626.980469 L 825.363281 626.980469 L 825.363281 680.074219 L 261 680.074219 Z M 261 626.980469 " fill-opacity="1" fill-rule="nonzero"/></g></g><g clip-path="url(#03dc40302b)"><g clip-path="url(#115b7c0b62)"><path fill="#ffffff" d="M 261 626.980469 L 825.363281 626.980469 L 825.363281 680.074219 L 261 680.074219 Z M 261 626.980469 " fill-opacity="1" fill-rule="nonzero"/></g></g><g clip-path="url(#a324e850ec)"><g clip-path="url(#377e3164b0)"><path fill="#ffffff" d="M 261 626.980469 L 825.363281 626.980469 L 825.363281 680.074219 L 261 680.074219 Z M 261 626.980469 " fill-opacity="1" fill-rule="nonzero"/></g></g><g clip-path="url(#14f0b38234)"><path fill="#ffffff" d="M 261 626.980469 L 825.363281 626.980469 L 825.363281 680.074219 L 261 680.074219 Z M 261 626.980469 " fill-opacity="1" fill-rule="nonzero"/></g><g clip-path="url(#8c9bd30a1c)"><g clip-path="url(#49ff3ec52b)"><path fill="#ffffff" d="M 261 626.980469 L 825.363281 626.980469 L 825.363281 680.074219 L 261 680.074219 Z M 261 626.980469 " fill-opacity="1" fill-rule="nonzero"/></g></g><g clip-path="url(#ddc9bf2210)"><path fill="#ffffff" d="M 261 626.980469 L 825.363281 626.980469 L 825.363281 680.074219 L 261 680.074219 Z M 261 626.980469 " fill-opacity="1" fill-rule="nonzero"/></g><g clip-path="url(#d06c6e8ced)"><g clip-path="url(#2375a1e930)"><path fill="#ffffff" d="M 261 626.980469 L 825.363281 626.980469 L 825.363281 680.074219 L 261 680.074219 Z M 261 626.980469 " fill-opacity="1" fill-rule="nonzero"/></g></g><g clip-path="url(#a122a28a6a)"><g clip-path="url(#bf100d431c)"><path fill="#ffffff" d="M 261 626.980469 L 825.363281 626.980469 L 825.363281 680.074219 L 261 680.074219 Z M 261 626.980469 " fill-opacity="1" fill-rule="nonzero"/></g></g><g clip-path="url(#12566880a3)"><path fill="#ffffff" d="M 261 626.980469 L 825.363281 626.980469 L 825.363281 680.074219 L 261 680.074219 Z M 261 626.980469 " fill-opacity="1" fill-rule="nonzero"/></g><g clip-path="url(#60feed3718)"><g clip-path="url(#22086f3153)"><path fill="#ffffff" d="M 261 626.980469 L 825.363281 626.980469 L 825.363281 680.074219 L 261 680.074219 Z M 261 626.980469 " fill-opacity="1" fill-rule="nonzero"/></g></g><g clip-path="url(#550ccd7f97)"><path fill="#ffffff" d="M 261 626.980469 L 825.363281 626.980469 L 825.363281 680.074219 L 261 680.074219 Z M 261 626.980469 " fill-opacity="1" fill-rule="nonzero"/></g><g clip-path="url(#ac00d2e4d7)"><g clip-path="url(#896f11995f)"><path fill="#ffffff" d="M 261 626.980469 L 825.363281 626.980469 L 825.363281 680.074219 L 261 680.074219 Z M 261 626.980469 " fill-opacity="1" fill-rule="nonzero"/></g></g><g clip-path="url(#f5ac865349)"><g clip-path="url(#ea0d7d9606)"><path fill="#ffffff" d="M 261 626.980469 L 825.363281 626.980469 L 825.363281 680.074219 L 261 680.074219 Z M 261 626.980469 " fill-opacity="1" fill-rule="nonzero"/></g></g><g clip-path="url(#559a13744e)"><g clip-path="url(#3ea2ddf87e)"><path fill="#ffffff" d="M 261 626.980469 L 825.363281 626.980469 L 825.363281 680.074219 L 261 680.074219 Z M 261 626.980469 " fill-opacity="1" fill-rule="nonzero"/></g></g><g clip-path="url(#640e941ba3)"><g clip-path="url(#e2b9f9ae4b)"><path fill="#ffffff" d="M 821.53125 472.019531 L 938.078125 472.019531 L 938.078125 599.949219 L 821.53125 599.949219 Z M 821.53125 472.019531 " fill-opacity="1" fill-rule="nonzero"/></g></g><g clip-path="url(#b047d3b1e1)"><path fill="#ffffff" d="M 834.75 627.042969 L 1026.765625 627.042969 L 1026.765625 680.015625 L 834.75 680.015625 Z M 834.75 627.042969 " fill-opacity="1" fill-rule="nonzero"/></g><g clip-path="url(#e762d061fc)"><g clip-path="url(#6bf93a5c3c)"><path fill="#ffffff" d="M 834.75 627.042969 L 1026.765625 627.042969 L 1026.765625 680.015625 L 834.75 680.015625 Z M 834.75 627.042969 " fill-opacity="1" fill-rule="nonzero"/></g></g><g clip-path="url(#8c4c303176)"><g clip-path="url(#ec7b5ceb5f)"><path fill="#ffffff" d="M 834.75 627.042969 L 1026.765625 627.042969 L 1026.765625 680.015625 L 834.75 680.015625 Z M 834.75 627.042969 " fill-opacity="1" fill-rule="nonzero"/></g></g><g clip-path="url(#72beff7d67)"><path fill="#ffffff" d="M 834.75 627.042969 L 1026.765625 627.042969 L 1026.765625 680.015625 L 834.75 680.015625 Z M 834.75 627.042969 " fill-opacity="1" fill-rule="nonzero"/></g><g clip-path="url(#6a24e38757)"><g clip-path="url(#89272d7131)"><path fill="#ffffff" d="M 834.75 627.042969 L 1026.765625 627.042969 L 1026.765625 680.015625 L 834.75 680.015625 Z M 834.75 627.042969 " fill-opacity="1" fill-rule="nonzero"/></g></g><g clip-path="url(#25e265d61f)"><path fill="#ffffff" d="M 834.75 627.042969 L 1026.765625 627.042969 L 1026.765625 680.015625 L 834.75 680.015625 Z M 834.75 627.042969 " fill-opacity="1" fill-rule="nonzero"/></g><g clip-path="url(#1e5feaf94f)"><g clip-path="url(#11d7297815)"><path fill="#ffffff" d="M 950.945312 472.207031 L 1047.421875 472.207031 L 1047.421875 599.960938 L 950.945312 599.960938 Z M 950.945312 472.207031 " fill-opacity="1" fill-rule="nonzero"/></g></g><g clip-path="url(#ef75402048)"><path fill="#ffffff" d="M 1038.921875 632.660156 L 1064.125 632.660156 L 1064.125 674.402344 L 1038.921875 674.402344 Z M 1038.921875 632.660156 " fill-opacity="1" fill-rule="nonzero"/></g><g clip-path="url(#3296508ca4)"><path fill="#ffffff" d="M 1052.914062 467.019531 L 1276.320312 467.019531 L 1276.320312 605.164062 L 1052.914062 605.164062 Z M 1052.914062 467.019531 " fill-opacity="1" fill-rule="nonzero"/></g><g clip-path="url(#0f4d0d3f97)"><g clip-path="url(#fc975574d6)"><path fill="#ffffff" d="M 1052.914062 467.019531 L 1276.320312 467.019531 L 1276.320312 605.164062 L 1052.914062 605.164062 Z M 1052.914062 467.019531 " fill-opacity="1" fill-rule="nonzero"/></g></g><g clip-path="url(#11bb952ae4)"><g clip-path="url(#73dcfa2748)"><path fill="#ffffff" d="M 1290.640625 473.125 L 1378.28125 473.125 L 1378.28125 598.082031 L 1290.640625 598.082031 Z M 1290.640625 473.125 " fill-opacity="1" fill-rule="nonzero"/></g></g><g clip-path="url(#887d5ab558)"><g clip-path="url(#e4e9c16db0)"><path fill="#ffffff" d="M 1077.414062 626.980469 L 1379.195312 626.980469 L 1379.195312 680.074219 L 1077.414062 680.074219 Z M 1077.414062 626.980469 " fill-opacity="1" fill-rule="nonzero"/></g></g><g clip-path="url(#501539e576)"><g clip-path="url(#1b177e4d53)"><path fill="#ffffff" d="M 1077.414062 626.980469 L 1379.195312 626.980469 L 1379.195312 680.074219 L 1077.414062 680.074219 Z M 1077.414062 626.980469 " fill-opacity="1" fill-rule="nonzero"/></g></g><g clip-path="url(#9c05ffcbe4)"><g clip-path="url(#38f759d216)"><path fill="#ffffff" d="M 1077.414062 626.980469 L 1379.195312 626.980469 L 1379.195312 680.074219 L 1077.414062 680.074219 Z M 1077.414062 626.980469 " fill-opacity="1" fill-rule="nonzero"/></g></g><g clip-path="url(#3ff9c47a5a)"><g clip-path="url(#803517418d)"><path fill="#ffffff" d="M 1077.414062 626.980469 L 1379.195312 626.980469 L 1379.195312 680.074219 L 1077.414062 680.074219 Z M 1077.414062 626.980469 " fill-opacity="1" fill-rule="nonzero"/></g></g><g clip-path="url(#8aa8c89481)"><g clip-path="url(#aaf9e2b1d8)"><path fill="#ffffff" d="M 1077.414062 626.980469 L 1379.195312 626.980469 L 1379.195312 680.074219 L 1077.414062 680.074219 Z M 1077.414062 626.980469 " fill-opacity="1" fill-rule="nonzero"/></g></g><g clip-path="url(#f569a3bd65)"><g clip-path="url(#5129757063)"><path fill="#ffffff" d="M 1077.414062 626.980469 L 1379.195312 626.980469 L 1379.195312 680.074219 L 1077.414062 680.074219 Z M 1077.414062 626.980469 " fill-opacity="1" fill-rule="nonzero"/></g></g><g clip-path="url(#c5c6274d77)"><g clip-path="url(#b59e940358)"><path fill="#ffffff" d="M 1077.414062 626.980469 L 1379.195312 626.980469 L 1379.195312 680.074219 L 1077.414062 680.074219 Z M 1077.414062 626.980469 " fill-opacity="1" fill-rule="nonzero"/></g></g><g clip-path="url(#05f9ad6ab1)"><path fill="#ffffff" d="M 1077.414062 626.980469 L 1379.195312 626.980469 L 1379.195312 680.074219 L 1077.414062 680.074219 Z M 1077.414062 626.980469 " fill-opacity="1" fill-rule="nonzero"/></g></svg>